<?xml version="1.0" encoding="utf-8"?>
<!-- Generator: Adobe Illustrator 25.1.0, SVG Export Plug-In . SVG Version: 6.00 Build 0)  -->
<svg version="1.1" id="Camada_1" xmlns="http://www.w3.org/2000/svg" xmlns:xlink="http://www.w3.org/1999/xlink" x="0px" y="0px"
	 viewBox="0 0 800 800" style="enable-background:new 0 0 800 800;" xml:space="preserve">
<g>
	<path d="M186.9,555h-70.1V241h106.5L243,372.8h2.8l14-131.8h106.5v314h-70.1V367.1h-2.8L268.2,555H215l-28-187.9l0,0V555L186.9,555
		z"/>
	<path d="M394.4,238.2c11.2,0,89.7-2.8,131.8,2.8c33.6,2.8,50.5,30.8,53.3,64.5c2.8,61.7,2.8,123.4,2.8,185c0,5.6,0,14-2.8,22.4
		c-5.6,25.2-19.6,39.3-53.3,42.1c-42.1,2.8-84.1,2.8-123.4,2.8c0,0-2.8,0-5.6,0V238.2H394.4z M478.5,297v201.9
		c14,0,22.4-5.6,22.4-19.6c0-53.3,0-109.3,0-165.4C500.9,299.9,495.3,294.2,478.5,297z"/>
	<path d="M7.5,555V241h81.3v314H7.5L7.5,555z"/>
	<path d="M789.7,358.7c-2.8-22.4-16.8-33.6-39.3-39.3c-22.4-2.8-44.9,0-64.5,19.6V241h-78.5v314h72.9c2.8-5.6,2.8-11.2,5.6-14
		c0,0,0,0,2.8,0c2.8,2.8,5.6,5.6,8.4,8.4c19.6,14,42.1,16.8,64.5,8.4c19.6-8.4,28-25.2,28-44.9c0-22.4,2.8-47.7,2.8-72.9
		C792.5,412,792.5,384,789.7,358.7L789.7,358.7z M711.2,498.9c0,5.6-5.6,11.2-11.2,11.2s-11.2-5.6-11.2-11.2V378.4
		c0-5.6,5.6-11.2,11.2-11.2s11.2,5.6,11.2,11.2V498.9z"/>
</g>
</svg>
