<?xml version="1.0" encoding="utf-8"?>
<!-- Generator: Adobe Illustrator 25.1.0, SVG Export Plug-In . SVG Version: 6.00 Build 0)  -->
<svg version="1.1" id="Capa_1" xmlns="http://www.w3.org/2000/svg" xmlns:xlink="http://www.w3.org/1999/xlink" x="0px" y="0px"
	 viewBox="0 0 800 800" style="enable-background:new 0 0 800 800;" xml:space="preserve" fill="currentColor">
<g>
	<path d="M681.4,82.2c76.8,2,115.3,45.6,115.7,131c0,5.6-0.2,11.4-0.5,17.4c-3.4,72.3-57.2,170.9-161.7,295.6
		C527.1,656.8,435.7,722.2,360.6,722.6c-46.7,0-85.5-40-116.6-120l-32.7-109.7L179,383.3c-23.8-79.4-49.3-119-76.4-119
		c-5.9,0-26.6,11.6-61.9,34.7L2.9,254.3l58.5-48.6l57.6-48.1c51.5-41.3,90.7-63.6,117.6-66.9c3.6-0.4,7.2-0.5,10.8-0.5
		c55.2,0,89.7,39.7,103.2,119c7.5,45.3,13.8,82.1,18.9,110.3c4.9,28.3,9,48.1,12.3,59.3c18.2,75,37.9,112.8,59,113.1
		c16.2,0,41.2-24.5,75-73.4c33-50.2,50.7-87.5,53-111.7c0.7-4.9,1-9.5,1-13.8c0-32.8-18.1-49.1-54-49.1c-18.2,0-37.7,3.9-58.6,11.4
		C494.6,140.2,566.4,82.5,672.5,82.2C675.5,82.2,678.4,82.2,681.4,82.2z"/>
</g>
</svg>
