<svg id="Ebene_1" data-name="Ebene 1" xmlns="http://www.w3.org/2000/svg" viewBox="0 0 662.2 662.2"><path d="M273.87,105.74q8.61,10.29,10.63,29.2a421.35,421.35,0,0,1,2,44.24v2.15a102.92,102.92,0,0,1,31.22-29.14q23.24-14,56.8-17.67-3.27-26.22-10.87-46.33Q350.35,52.9,321.47,35.51T246.35,18.12q-46.26,0-75.29,17.39T128.52,88.19Q115,123.47,115,177.49V484.57H205.5V179.18a384.06,384.06,0,0,1,2.19-43.9q2.19-18.9,10.64-29.37T246,95.44Q265.25,95.44,273.87,105.74Z"/><path d="M376.11,223.45H377v-.56C376.71,223.07,376.41,223.26,376.11,223.45Z"/><path d="M417.12,168.55q46.26,0,75.29,17.39T535,238.61q13.5,35.28,13.5,89.3V635H458V329.61a386.24,386.24,0,0,0-2.19-43.9q-2.2-18.91-10.64-29.37t-27.69-10.47q-19.23,0-27.85,10.3T379,285.37a418.65,418.65,0,0,0-2,44.24v44.26H286.45v-46q0-54,13.34-89.3T342,185.94Q370.86,168.56,417.12,168.55Z"/><path d="M246.28,635Q200,635,171,617.61t-42.53-52.67q-13.51-35.28-13.51-89.3V168.55h90.48V473.94a383.74,383.74,0,0,0,2.2,43.9q2.19,18.92,10.64,29.37t27.68,10.47q19.24,0,27.85-10.3t10.64-29.2a421.6,421.6,0,0,0,2-44.24V368.18h90.49V475.64q0,54-13.34,89.3t-42.2,52.67Q292.54,635,246.28,635Z"/></svg>